Coordinates
version=1
nRows=8
nColumns=40
inDegrees=yes

Units are S.I. units (second, meters, Newtons, ...)
Angles are in degrees.

endheader
time	pelvis_tilt	pelvis_list	pelvis_rotation	pelvis_tx	pelvis_ty	pelvis_tz	hip_flexion_r	hip_adduction_r	hip_rotation_r	knee_angle_r	knee_angle_r_beta	ankle_angle_r	subtalar_angle_r	mtp_angle_r	hip_flexion_l	hip_adduction_l	hip_rotation_l	knee_angle_l	knee_angle_l_beta	ankle_angle_l	subtalar_angle_l	mtp_angle_l	lumbar_extension	lumbar_bending	lumbar_rotation	arm_flex_r	arm_add_r	arm_rot_r	elbow_flex_r	pro_sup_r	wrist_flex_r	wrist_dev_r	arm_flex_l	arm_add_l	arm_rot_l	elbow_flex_l	pro_sup_l	wrist_flex_l	wrist_dev_l
     38.92500000	     -6.77851101	     -4.59915840	     -6.78359559	      1.00734335	      0.91821506	      0.45913898	     30.39071484	      0.98693440	    -14.58869185	     12.81735022	     12.81735022	      4.06282319	      7.72658370	      9.75098296	      2.01093209	     -5.87339591	    -12.64686525	     14.20300595	     14.20300595	     18.18785563	     -9.80694552	     -4.91950132	    -13.56924214	      6.11168127	      2.89278714	     -9.71311047	    -12.50956273	    -10.91647932	     23.41204108	     47.02639469	      0.00000000	      0.00000000	     20.46032442	    -17.46984532	    -12.28433625	     95.04119651	     48.21920000	      0.00000000	      0.00000000
     38.93607143	     -6.84747801	     -4.42571522	     -6.70102130	      1.01028959	      0.91587719	      0.46067275	     30.16492506	      1.11787557	    -14.99920916	     11.90199749	     11.90199749	      3.65585278	      8.07867977	     10.06849493	      1.23601138	     -5.71729635	    -12.68903009	     14.02386936	     14.02386936	     18.76741782	     -9.48172058	     -5.02309200	    -13.14789694	      5.95845899	      2.74845177	    -10.92093970	    -12.28498698	    -10.83463803	     23.45216431	     47.00005979	      0.00000000	      0.00000000	     20.86384104	    -17.52746040	    -12.31770955	     95.96943893	     48.24413111	      0.00000000	      0.00000000
     38.94714286	     -6.72181421	     -4.46486286	     -6.63719367	      1.01356812	      0.91388448	      0.46252511	     29.63005812	      1.43129896	    -15.45773725	     11.29579071	     11.29579071	      2.71549255	      8.38420774	      8.72511658	      0.29689873	     -5.90821390	    -13.31711457	     14.14161972	     14.14161972	     20.02411429	     -8.01666743	     -4.20513789	    -13.08834571	      6.00471007	      2.78566578	    -13.14747613	    -12.33668767	    -10.06753514	     26.57623324	     46.73785026	      0.00000000	      0.00000000	     20.72771722	    -17.48945655	    -11.95153850	     98.08582734	     48.30075653	      0.00000000	      0.00000000
     38.95821429	     -6.78905446	     -4.47011390	     -6.57187215	      1.01658906	      0.91178682	      0.46447175	     29.53636504	      1.64011829	    -15.62511819	     11.48530556	     11.48530556	      2.19751529	      8.23287951	      8.76083020	     -0.40443275	     -5.98832980	    -13.24854826	     14.15663881	     14.15663881	     20.48475446	     -8.05263325	     -4.31587123	    -12.68267526	      6.02987287	      2.48821316	    -13.83565594	    -12.21253761	    -10.03597181	     26.38253824	     46.73619195	      0.00000000	      0.00000000	     20.86723699	    -17.46371600	    -11.96200434	     98.28760591	     48.30735253	      0.00000000	      0.00000000
     38.96928571	     -6.65318205	     -4.60471547	     -6.47814393	      1.01998271	      0.90985194	      0.46685680	     29.13551364	      2.06241686	    -15.07356899	     11.71002751	     11.71002751	     -0.29287403	      6.60099409	      2.58863035	     -1.21184299	     -6.38352425	    -13.81799982	     14.61226299	     14.61226299	     21.83484780	     -6.62283030	     -3.13789926	    -12.60589544	      6.15309272	      2.79983005	    -15.69187538	    -12.16958075	     -9.10786971	     28.41293643	     46.52676389	      0.00000000	      0.00000000	     20.83563472	    -17.29727359	    -11.41745132	     99.92297099	     48.35276751	      0.00000000	      0.00000000
     38.98035714	     -6.61865809	     -4.76003601	     -6.40165074	      1.02306782	      0.90820882	      0.46917036	     29.20514413	      2.26126542	    -14.98793386	     13.01587852	     13.01587852	     -0.67837356	      5.89555805	      1.92748501	     -1.89815029	     -6.69350193	    -13.72743870	     14.91323991	     14.91323991	     22.20377010	     -6.70980906	     -3.18558004	    -12.39439871	      6.32858796	      2.80837507	    -16.25622944	    -12.06339952	     -9.00685116	     28.24135934	     46.51887196	      0.00000000	      0.00000000	     20.75263371	    -17.02007842	    -11.35269942	    100.26872009	     48.36029521	      0.00000000	      0.00000000
     38.99142857	     -6.66393080	     -4.79923350	     -6.31012437	      1.02595238	      0.90658766	      0.47164370	     29.53535724	      2.34968800	    -14.40485502	     14.72798623	     14.72798623	     -1.14543086	      4.37772933	      0.43006783	     -2.22357562	     -6.99696531	    -13.70854916	     15.70054894	     15.70054894	     22.57867452	     -6.67635812	     -3.25703027	    -12.12809715	      6.33879818	      2.75915304	    -16.74602147	    -11.80952554	     -8.91060147	     28.25682464	     46.50189225	      0.00000000	      0.00000000	     20.53247132	    -16.82721828	    -11.13115700	    100.90791683	     48.36731097	      0.00000000	      0.00000000
     39.00250000	     -6.48807523	     -5.05561297	     -6.22066816	      1.02893575	      0.90577025	      0.47426417	     29.45979457	      2.61429189	    -14.10499535	     16.32655238	     16.32655238	     -1.26301313	      3.29039079	     -0.50914941	     -2.72455459	     -7.53173855	    -13.64728587	     16.65602308	     16.65602308	     22.75259367	     -6.91558219	     -3.36909865	    -12.16970571	      6.59542604	      2.71099260	    -16.90950576	    -11.75995798	     -8.89664497	     28.25297346	     46.49750878	      0.00000000	      0.00000000	     20.11256321	    -16.66501902	    -10.93505652	    101.13413067	     48.36216135	      0.00000000	      0.00000000
